<svg xmlns="http://www.w3.org/2000/svg" version="1.1" xmlns:xlink="http://www.w3.org/1999/xlink" xmlns:svgjs="http://svgjs.dev/svgjs" viewBox="0 0 800 800"><defs><linearGradient x1="50%" y1="0%" x2="50%" y2="100%" id="ssspill-grad"><stop stop-color="hsl(37, 99%, 67%)" stop-opacity="1" offset="45%"></stop><stop stop-color="hsl(316, 73%, 52%)" stop-opacity="1" offset="100%"></stop></linearGradient><filter id="ssspot-filter" x="-20%" y="-20%" width="140%" height="140%" filterUnits="objectBoundingBox" primitiveUnits="userSpaceOnUse" color-interpolation-filters="sRGB">
	<feTurbulence type="turbulence" baseFrequency="0.022 0.218" numOctaves="2" seed="191" stitchTiles="stitch" x="0%" y="0%" width="100%" height="100%" result="turbulence"></feTurbulence>
	<feGaussianBlur stdDeviation="0 3" x="0%" y="0%" width="100%" height="100%" in="turbulence" edgeMode="duplicate" result="blur"></feGaussianBlur>
	<feDisplacementMap in="SourceGraphic" in2="blur" scale="32" xChannelSelector="R" yChannelSelector="B" x="0%" y="0%" width="100%" height="100%" result="displacementMap"></feDisplacementMap>
</filter></defs><rect width="100%" height="100%" fill="hsl(0, 0%, 100%)"></rect><g fill="url(#ssspill-grad)" filter="url(#ssspot-filter)"><circle r="9.30021179969685" cx="140.9590015634762" cy="228.2303948567451" opacity="0.5139025490256548"></circle><circle r="6.05642308749305" cx="419.0744849951981" cy="787.3968027516971" opacity="0.24307126986001762"></circle><circle r="5.062392336936604" cx="167.29644912984267" cy="472.6089019401112" opacity="0.6675623801502671"></circle><circle r="9.448485164235041" cx="22.115632653145756" cy="146.44091359499507" opacity="0.23885467000963323"></circle><circle r="6.13126438011838" cx="269.9109487567133" cy="142.06202920593572" opacity="0.4273812902883857"></circle><circle r="3.5315667665190946" cx="319.86987464131545" cy="138.89192638527592" opacity="0.6835373032492384"></circle><circle r="4.842324504579206" cx="95.4063312441106" cy="119.29123198643993" opacity="0.5236449629193883"></circle><circle r="5.946127981638441" cx="781.3310325851999" cy="635.3400499303287" opacity="0.5078110486732867"></circle><circle r="4.678135989814192" cx="64.3779755626986" cy="356.79309827505756" opacity="0.44536521604328083"></circle><circle r="8.808529813050644" cx="458.0582819318215" cy="82.68697327783707" opacity="0.11273982298607681"></circle><circle r="3.560864159177786" cx="407.1108673645081" cy="23.841677994467602" opacity="0.26763436128278517"></circle><circle r="3.1963945429919525" cx="428.906390552526" cy="173.4237187762905" opacity="0.41042617164731565"></circle><circle r="9.559008494494769" cx="331.1793500511517" cy="383.5154282566163" opacity="0.7139266071838126"></circle><circle r="7.268051891256444" cx="73.38376350693483" cy="142.80439438971868" opacity="0.9459384679727824"></circle><circle r="8.31168239589807" cx="587.8713061380852" cy="19.259927737568077" opacity="0.12358556877382285"></circle><circle r="6.770189970252778" cx="425.7092829321271" cy="250.63255104401813" opacity="0.17344940720239166"></circle><circle r="6.0238349545431955" cx="42.16554495440351" cy="786.729274015435" opacity="0.8995006298892264"></circle><circle r="4.688312725119563" cx="484.9542061402597" cy="758.2504644923824" opacity="0.6605967134528669"></circle><circle r="5.090270261710041" cx="785.3498598458939" cy="275.0932308912528" opacity="0.8204394682104749"></circle><circle r="3.6988540378572274" cx="430.2597167062564" cy="51.148650170830855" opacity="0.9716571259752189"></circle><circle r="10.415060542290062" cx="303.09606315566225" cy="541.3605036098592" opacity="0.6119112998115935"></circle><circle r="4.415447452995415" cx="616.9452805753654" cy="369.96422899222404" opacity="0.6991450014967526"></circle><circle r="3.9136131779992254" cx="454.0156739156976" cy="786.5372096161949" opacity="0.7027908583975283"></circle><circle r="5.76666546479363" cx="755.4349140337563" cy="283.1447298718542" opacity="0.7458906451577965"></circle><circle r="5.601181618397982" cx="381.7887492538014" cy="664.4651866899774" opacity="0.680039551331661"></circle><circle r="4.800545298374596" cx="559.4927994621924" cy="257.41885562217936" opacity="0.289638396951287"></circle><circle r="6.024695799884858" cx="784.1379754564297" cy="674.1609803713279" opacity="0.9906119813322068"></circle><circle r="5.939325691227749" cx="108.64275477450646" cy="708.3930374328718" opacity="0.2447769560610428"></circle><circle r="4.251198551901715" cx="145.41181700668403" cy="97.78158418226288" opacity="0.6604225541115792"></circle><circle r="4.565759782679832" cx="520.128195480379" cy="184.58333981258252" opacity="0.8790787223237578"></circle><circle r="7.759022535350022" cx="696.8596504010519" cy="629.3797506121315" opacity="0.40643089537547994"></circle><circle r="4.758424956797708" cx="353.2985913106501" cy="204.20748496873745" opacity="0.7077462591848708"></circle><circle r="6.209686135263357" cx="662.9430006108547" cy="456.4755597326254" opacity="0.859415427052754"></circle><circle r="5.186311573088847" cx="538.2005151627407" cy="487.6250640432982" opacity="0.4730633971278708"></circle><circle r="8.636611772036737" cx="194.8154134179792" cy="525.0216612435212" opacity="0.5898000321648955"></circle><circle r="4.6018907335635815" cx="654.8136489210272" cy="113.52857204787146" opacity="0.18658116274775144"></circle><circle r="6.098656613016525" cx="157.97291990870127" cy="532.0771798057615" opacity="0.8175064047290626"></circle><circle r="6.659698938941942" cx="347.61872406316394" cy="421.2701291360239" opacity="0.48022517657451835"></circle><circle r="5.193221182792232" cx="420.2260766564093" cy="207.0663277909559" opacity="0.38229675456571377"></circle><circle r="3.787920725118854" cx="144.0627861041551" cy="150.86520446654293" opacity="0.9022918978262235"></circle><circle r="4.590892886719773" cx="645.2345747754795" cy="217.25411737014352" opacity="0.27511999884663374"></circle><circle r="7.523306538406457" cx="134.70767475205056" cy="746.0615123399161" opacity="0.1597020633300912"></circle><circle r="8.315337011671113" cx="521.5721357925491" cy="602.8516131060318" opacity="0.3882649526402324"></circle><circle r="4.041702428848273" cx="385.1900807807145" cy="202.16323966327528" opacity="0.5883565420127983"></circle><circle r="5.808039169942465" cx="598.6012424857479" cy="400.9283098098137" opacity="0.5503004667470385"></circle><circle r="5.763508212731947" cx="55.18875633375012" cy="538.8121095712175" opacity="0.8845846836594489"></circle><circle r="5.899408693863767" cx="336.11326359906343" cy="265.01721079373146" opacity="0.8557569256373959"></circle><circle r="6.1210163815648535" cx="694.2736731873023" cy="89.77755955601377" opacity="0.7598363870495841"></circle><circle r="5.562724641535181" cx="645.1445281060802" cy="75.36592550975921" opacity="0.5707677462004012"></circle><circle r="4.443211854916427" cx="33.81469566630062" cy="233.30190262312928" opacity="0.47762073847292885"></circle><circle r="2.6622846412455017" cx="470.8083342768837" cy="24.533399598372483" opacity="0.45347101118451094"></circle><circle r="4.861218408393041" cx="176.94689861931403" cy="65.70621460900091" opacity="0.1497879794533878"></circle><circle r="3.932238559111361" cx="628.9444560184974" cy="551.6594218941924" opacity="0.18948256481217904"></circle><circle r="4.424849979743966" cx="226.36818113466651" cy="368.88748562355767" opacity="0.7509651524952664"></circle><circle r="4.210155822615961" cx="253.47787293852443" cy="219.23909894174173" opacity="0.6630822380597242"></circle><circle r="6.937959689444946" cx="52.4590793434642" cy="104.182922540349" opacity="0.4073528587077616"></circle><circle r="5.173160218674098" cx="423.23448342277817" cy="553.5168280311703" opacity="0.14684053687897466"></circle><circle r="6.7576868871004" cx="563.6708637657216" cy="408.058594517788" opacity="0.6229175097115375"></circle><circle r="4.138772522958285" cx="76.05247858018397" cy="749.1593761333224" opacity="0.16046561398995726"></circle><circle r="5.697643926713334" cx="463.01903061388424" cy="303.35980275079595" opacity="0.11421511932215817"></circle><circle r="3.757920063113019" cx="438.91361122382654" cy="517.8657222531363" opacity="0.7041945138393094"></circle><circle r="7.237610333219845" cx="405.1610326322928" cy="477.231423413184" opacity="0.2263628396255775"></circle><circle r="7.837608417073703" cx="148.7475032232603" cy="710.9745130254805" opacity="0.8899394426448458"></circle><circle r="4.07489577193331" cx="605.2502338624087" cy="336.3776127387572" opacity="0.6096790629032984"></circle><circle r="4.8872351664305" cx="410.4350679299074" cy="737.9361982067443" opacity="0.7253085313941284"></circle><circle r="6.2611043219464655" cx="349.0292870867792" cy="692.9635689517771" opacity="0.23002896246955223"></circle><circle r="10.109817931234591" cx="238.08648462687964" cy="725.0043458860769" opacity="0.8916448620091256"></circle><circle r="7.260417939522157" cx="94.8282071622595" cy="632.4292905445516" opacity="0.35617353233754256"></circle><circle r="7.903397052212424" cx="724.0333869651076" cy="209.12875604964339" opacity="0.6177264773526744"></circle><circle r="5.905324652160164" cx="576.5667481451292" cy="310.76142269459916" opacity="0.1551018816135156"></circle><circle r="5.961202718493529" cx="564.9700506124154" cy="786.5669717497788" opacity="0.45244101888035604"></circle><circle r="5.569801730051637" cx="507.2139530198296" cy="102.68319680930085" opacity="0.7530736372916861"></circle><circle r="3.3199932472582505" cx="13.808877509611156" cy="193.6442639101537" opacity="0.689959432490905"></circle><circle r="4.0024588484009955" cx="679.4900427935896" cy="514.1632307389967" opacity="0.28062090448601834"></circle><circle r="7.68783140074032" cx="246.11860762513314" cy="340.65357168785863" opacity="0.27536699108397555"></circle><circle r="6.86371813970988" cx="143.94879727387968" cy="17.726471208851567" opacity="0.5178206757519767"></circle><circle r="5.119671505553571" cx="344.72005605838245" cy="612.6524047093408" opacity="0.49623223716331455"></circle><circle r="4.333867978272107" cx="222.5264788152913" cy="228.22230223743648" opacity="0.7896297017011931"></circle><circle r="6.761435083198474" cx="456.18423135059845" cy="728.3600286479827" opacity="0.2717352394306621"></circle><circle r="3.995549240271652" cx="294.3155831801335" cy="129.29260451030262" opacity="0.8783931911242074"></circle><circle r="8.565829450915807" cx="207.49213345849566" cy="780.6467588772516" opacity="0.13827740318246087"></circle><circle r="4.24069329447093" cx="393.75576460548007" cy="232.48818867988027" opacity="0.461269981974597"></circle><circle r="4.353657879939427" cx="681.2527221393185" cy="702.1437191663192" opacity="0.362023353140955"></circle><circle r="3.645415002371976" cx="407.2311015244556" cy="41.757736110184304" opacity="0.7741855987809217"></circle><circle r="3.930250636068181" cx="323.8851767581158" cy="79.69972195242654" opacity="0.8262586701609271"></circle><circle r="7.768474483742196" cx="235.7668515330173" cy="148.30820322880757" opacity="0.5461921114141822"></circle><circle r="7.02771525482598" cx="110.65611284291272" cy="59.318490842719115" opacity="0.4332714807489886"></circle><circle r="5.359478560105508" cx="192.25409164574552" cy="625.5764406615452" opacity="0.4880313907282644"></circle><circle r="4.783764772378456" cx="127.9363344906205" cy="560.4763978688796" opacity="0.9590755691508678"></circle><circle r="6.0920114951004205" cx="232.7406433514737" cy="523.0367438362855" opacity="0.9587809245896498"></circle><circle r="8.41485620012973" cx="745.2248359333659" cy="645.1929573878551" opacity="0.336191448665046"></circle><circle r="5.904888146061385" cx="655.110829528277" cy="251.90646342902627" opacity="0.7499709550197171"></circle><circle r="9.893399178525023" cx="348.22441394205526" cy="339.88636358052474" opacity="0.8614518348914199"></circle><circle r="3.727239373221966" cx="425.1484582643989" cy="499.8978674169058" opacity="0.18302743533209706"></circle><circle r="2.5185475163808393" cx="399.2880560077362" cy="58.532400173564994" opacity="0.12023913701427029"></circle><circle r="8.626227097995006" cx="565.5415444636413" cy="753.6143599487896" opacity="0.8496756384203794"></circle><circle r="5.09163322927023" cx="746.966199352504" cy="258.82177189347993" opacity="0.6739423616922834"></circle><circle r="7.67031938063203" cx="722.9648944624713" cy="597.4271650509961" opacity="0.15775168036754428"></circle><circle r="5.291620478404912" cx="780.1407115603572" cy="419.24034399644677" opacity="0.35572509149773646"></circle><circle r="8.338315836506226" cx="492.67617170587357" cy="152.876459125979" opacity="0.6508847064670539"></circle><circle r="6.524659782824882" cx="644.5492692207965" cy="783.0530465630725" opacity="0.9564544029917926"></circle><circle r="5.326727205646934" cx="658.9661186667046" cy="680.6288838018265" opacity="0.4090542769966877"></circle><circle r="3.5508466105492" cx="460.84878782943883" cy="503.17701092948124" opacity="0.7740034549575808"></circle><circle r="8.33935951743009" cx="554.3390556254159" cy="112.07199315306455" opacity="0.32091113569521756"></circle><circle r="8.38626407986226" cx="245.2243100036533" cy="180.61987919218853" opacity="0.7630949692271546"></circle><circle r="4.627846319192674" cx="59.29994010434613" cy="260.6689410422528" opacity="0.32095597191054936"></circle><circle r="5.662000033885507" cx="614.9185827492381" cy="246.3304006708153" opacity="0.9474106890288752"></circle><circle r="5.6689032790238105" cx="637.411674635897" cy="465.78715470179566" opacity="0.26075910564383803"></circle><circle r="5.2254981656892205" cx="383.7427089316931" cy="704.1162967071468" opacity="0.9541981248362005"></circle><circle r="3.701831949624246" cx="182.6060712281313" cy="92.02163127758301" opacity="0.41251418010989216"></circle><circle r="5.0742436345575745" cx="310.6514439941317" cy="698.9732823300325" opacity="0.5130580341914203"></circle><circle r="7.471485424958481" cx="724.5652787588729" cy="695.3918352615265" opacity="0.5264086207901272"></circle><circle r="5.827962513849879" cx="74.11396255064093" cy="785.7881946204735" opacity="0.14682990468520812"></circle><circle r="7.190145133496734" cx="92.92421853529996" cy="332.98223758910507" opacity="0.5421563536247719"></circle><circle r="2.6430463145865377" cx="96.09420399423516" cy="9.311560143058237" opacity="0.15198717652993285"></circle><circle r="6.111791313017167" cx="650.9772292692951" cy="425.3644493040418" opacity="0.7349362949187648"></circle><circle r="5.306981954683054" cx="689.5850422118541" cy="434.91239355005325" opacity="0.3413877824546593"></circle><circle r="5.902266885961296" cx="606.3400660575359" cy="522.5368995680801" opacity="0.32068829039739166"></circle><circle r="8.357815051083207" cx="639.880278217766" cy="27.352298020698424" opacity="0.22563388932925277"></circle><circle r="4.458956822872192" cx="457.26960770968304" cy="535.4274857460056" opacity="0.3366045099641793"></circle><circle r="4.237824256387193" cx="367.5049574067653" cy="9.651215514999675" opacity="0.4871499009095298"></circle><circle r="6.384306826008061" cx="418.662582189572" cy="366.4275931304932" opacity="0.6116084718819771"></circle><circle r="8.18583437763605" cx="126.89835284531615" cy="624.9329812358965" opacity="0.1364562546811231"></circle><circle r="3.5244331487492824" cx="667.0818999410578" cy="723.2849737380135" opacity="0.17999659456276468"></circle><circle r="4.979244379432389" cx="692.2670533643226" cy="459.801713394358" opacity="0.1447046250298855"></circle><circle r="6.950898730255793" cx="214.36867386282637" cy="39.11924436406161" opacity="0.8900789011157142"></circle><circle r="4.1166192586946675" cx="77.9475729396123" cy="452.19847046745735" opacity="0.44736350590872287"></circle><circle r="4.587706993197713" cx="706.3805550831379" cy="782.8421410350869" opacity="0.7243069625630957"></circle><circle r="4.619440150324824" cx="14.576079986428997" cy="744.0782640457498" opacity="0.32876032307797665"></circle><circle r="7.2176077290943805" cx="747.0547494489451" cy="744.0833069971004" opacity="0.9041867478373451"></circle><circle r="5.038716941729473" cx="306.0381708670907" cy="353.09662610778946" opacity="0.48817698203032833"></circle><circle r="4.940672488409607" cx="129.46745187785046" cy="785.0297607168476" opacity="0.7076293517202296"></circle><circle r="5.672461865273175" cx="724.1559148424188" cy="159.458966946681" opacity="0.6889628435155307"></circle><circle r="9.045313786575074" cx="588.9214203209843" cy="154.8291874186672" opacity="0.13206540296129105"></circle><circle r="2.4156743559098826" cx="413.76720712896866" cy="536.1100791287394" opacity="0.6151892366392828"></circle><circle r="7.841320157812458" cx="551.3016625423791" cy="288.53812315614726" opacity="0.5479531746930222"></circle><circle r="6.503777064785933" cx="30.19035712508867" cy="685.828888208199" opacity="0.8953043402527133"></circle><circle r="7.017553238795129" cx="654.7020733558998" cy="295.82855891287926" opacity="0.705658751964072"></circle><circle r="7.015765245194855" cx="502.1938704088159" cy="63.10798901387101" opacity="0.7918227662033401"></circle><circle r="4.9469897015563475" cx="621.513317456476" cy="578.1048158529579" opacity="0.29613963317422787"></circle><circle r="6.2726844654347085" cx="399.00379263931984" cy="582.8042582312419" opacity="0.8376895102706495"></circle><circle r="6.410187910949773" cx="160.95880687846042" cy="500.9446498958602" opacity="0.24741604552298804"></circle><circle r="4.799856743187658" cx="623.9701774521285" cy="748.9105319446033" opacity="0.5409487226143318"></circle><circle r="8.657949511611896" cx="26.60414195941773" cy="61.79713849980508" opacity="0.9685113437539172"></circle><circle r="3.9478317346871368" cx="207.01947022034926" cy="145.49492392451586" opacity="0.3116670532972671"></circle><circle r="6.237352693989235" cx="324.88871218229013" cy="487.3073654200039" opacity="0.48373069118906753"></circle><circle r="7.792025761076838" cx="703.2915373006471" cy="123.55152625888002" opacity="0.15920630631129726"></circle><circle r="8.626251974266872" cx="532.3547378358222" cy="147.73420765033427" opacity="0.5236524020477221"></circle><circle r="6.370844340902254" cx="99.36855515661328" cy="737.5512018282807" opacity="0.20982639637833977"></circle><circle r="4.595084954317251" cx="468.2026481591405" cy="475.8761428875861" opacity="0.45210382671824134"></circle><circle r="7.690666964886422" cx="746.8919844485295" cy="368.03262328056366" opacity="0.8618460366934111"></circle><circle r="5.308721017846624" cx="356.5338186878581" cy="87.17084827984428" opacity="0.6108742388863103"></circle><circle r="4.9391172227151685" cx="487.01449496019774" cy="14.347216524731408" opacity="0.7458877238837172"></circle><circle r="7.524731173402196" cx="144.76767670100992" cy="348.3746259888352" opacity="0.9684566218589822"></circle><circle r="6.0155512360837005" cx="143.0315024468039" cy="66.58591158343313" opacity="0.6614858869303929"></circle><circle r="6.2165787496160565" cx="177.98230321441315" cy="256.45631016871675" opacity="0.10152846002633635"></circle><circle r="6.304817446367201" cx="257.25136068439593" cy="550.5562616200546" opacity="0.7505489372469495"></circle><circle r="4.311410303917532" cx="717.161756755338" cy="740.145865805034" opacity="0.5263768845673297"></circle><circle r="4.715403430652765" cx="698.064534902939" cy="720.7750204606014" opacity="0.6946014200793182"></circle><circle r="4.3028523104862355" cx="173.3099140010575" cy="142.54516044517663" opacity="0.21214074108142741"></circle><circle r="6.287462974065089" cx="324.5455087108046" cy="189.02787547261124" opacity="0.35326826850429305"></circle><circle r="4.9409951566763946" cx="703.8316910677622" cy="187.86674094638528" opacity="0.33688488519714566"></circle><circle r="6.530868560338716" cx="391.3908759429691" cy="411.9664428243894" opacity="0.8453761900142422"></circle><circle r="5.346067927275263" cx="688.2893803463709" cy="587.401657838567" opacity="0.3504985654873518"></circle><circle r="4.08405152782781" cx="635.3143331006651" cy="612.8188392419261" opacity="0.20714243422477852"></circle><circle r="8.01803860676928" cx="218.0691249133461" cy="110.23120479569317" opacity="0.8204639582673139"></circle><circle r="6.0028714397130845" cx="444.5149055207157" cy="637.5991661629482" opacity="0.24617988490286877"></circle><circle r="4.053671721028178" cx="516.2873940750925" cy="753.9635847307104" opacity="0.22372166360998297"></circle><circle r="5.649660562942678" cx="53.384398888690846" cy="730.9105865723474" opacity="0.507338344876481"></circle><circle r="6.651769621036789" cx="257.18820309378714" cy="113.65377181163173" opacity="0.5732993490612671"></circle><circle r="4.580708309854814" cx="279.37744921877703" cy="402.19321813154386" opacity="0.20417957008312393"></circle><circle r="5.701526301929568" cx="297.5315881798334" cy="584.4724603055076" opacity="0.21837043177529245"></circle><circle r="5.901393903916331" cx="283.0519149360033" cy="211.690094210452" opacity="0.4978588931966824"></circle><circle r="7.251504992856825" cx="398.98291284332186" cy="625.092366135113" opacity="0.610120445145841"></circle><circle r="5.342452736526679" cx="113.00848299539597" cy="28.845359570129418" opacity="0.35685659431699657"></circle><circle r="8.181631145193675" cx="781.2171627917422" cy="732.5799457540653" opacity="0.47602885043379173"></circle><circle r="8.361077548722388" cx="17.547939425875146" cy="363.52962836433636" opacity="0.2061376305538542"></circle><circle r="8.952101081761398" cx="576.4291277996225" cy="622.882657530932" opacity="0.858292843393193"></circle><circle r="5.957474698213389" cx="311.5094938308739" cy="291.7912002442859" opacity="0.5620405012528439"></circle><circle r="4.237101716092644" cx="461.57927952133423" cy="240.16282955256906" opacity="0.7761075099621072"></circle><circle r="6.427787807231059" cx="663.533773836536" cy="493.6598918761935" opacity="0.8265783353327742"></circle><circle r="6.714641323673014" cx="415.5019802530032" cy="672.1526537603893" opacity="0.3591918580129998"></circle><circle r="6.299711033262005" cx="114.05088430281273" cy="91.59917608472517" opacity="0.13616927289199177"></circle><circle r="6.288686921124681" cx="124.71796786333974" cy="273.025409887374" opacity="0.29757852045417754"></circle><circle r="5.894739928412157" cx="346.15062354997656" cy="726.6874945313201" opacity="0.6490052458059633"></circle><circle r="9.131137563533551" cx="210.75271020435372" cy="665.2534577579918" opacity="0.8098194854896807"></circle><circle r="4.026640090570079" cx="713.3466734782035" cy="421.87820284794185" opacity="0.4784130462733376"></circle><circle r="6.445990142741585" cx="20.40703005655334" cy="509.550057639966" opacity="0.9755481054103791"></circle><circle r="4.624510297597558" cx="661.6749748114987" cy="752.5335356104495" opacity="0.28168675597437226"></circle><circle r="4.499402017016017" cx="126.02573883789815" cy="483.99449941118155" opacity="0.593246973355234"></circle><circle r="3.8244489073497823" cx="119.85265974728772" cy="451.9477287323424" opacity="0.36626564528415617"></circle><circle r="5.006404913682426" cx="182.75166800416133" cy="443.4615254718573" opacity="0.2043558420645235"></circle><circle r="9.008838798559974" cx="499.07859521101807" cy="569.2511320583486" opacity="0.4787723229535531"></circle><circle r="7.5158392845025634" cx="368.4248990767763" cy="500.64619372747956" opacity="0.868551440988663"></circle><circle r="7.556688022927739" cx="296.3823501818096" cy="656.764593465784" opacity="0.2674807003324894"></circle><circle r="4.411942380941169" cx="336.9043392695845" cy="160.95213811656498" opacity="0.7797218041041766"></circle><circle r="4.1123500700325355" cx="300.79807077503057" cy="170.53062685856722" opacity="0.12257897566439413"></circle><circle r="6.738766986490916" cx="178.80822710159345" cy="297.00835184690374" opacity="0.41162004883228065"></circle><circle r="7.338281268454558" cx="389.58089997188284" cy="111.58771418793785" opacity="0.10466105879959736"></circle><circle r="8.104906508985053" cx="737.1181997430559" cy="80.50047141550624" opacity="0.8504951471960752"></circle><circle r="5.61518476529194" cx="677.9336255456076" cy="783.5984033962714" opacity="0.26030127428912264"></circle><circle r="4.930703796413466" cx="39.91487136228777" cy="411.030249052008" opacity="0.26366641657519163"></circle><circle r="5.5938966264237235" cx="472.8235305034516" cy="554.7194470431908" opacity="0.41781891627529655"></circle><circle r="8.689227819091862" cx="487.4314831413388" cy="709.4346413138258" opacity="0.36197439026607314"></circle><circle r="5.628149622163994" cx="643.0718028991907" cy="322.4066828482672" opacity="0.12630499038884505"></circle><circle r="3.8626555382326333" cx="381.93142479541103" cy="30.09497407397109" opacity="0.5959292059482617"></circle><circle r="4.0482664949653735" cx="504.2257565859427" cy="214.0316462814027" opacity="0.6620361546083864"></circle><circle r="6.439940099267448" cx="786.9353900171378" cy="595.9226440642186" opacity="0.14360054520114546"></circle><circle r="6.7624219193945985" cx="436.2438483323644" cy="114.92030411536791" opacity="0.598979382609443"></circle><circle r="4.615519562706094" cx="248.7326954312254" cy="283.9309742599953" opacity="0.11632318376939318"></circle><circle r="6.5461230239972545" cx="720.1650669993078" cy="335.2249326580584" opacity="0.11715743654380956"></circle><circle r="3.802713546996966" cx="86.3935342663936" cy="474.66494418349475" opacity="0.8921914094898235"></circle><circle r="3.272884208486076" cx="594.0522379872838" cy="229.73451678095697" opacity="0.7131226805144576"></circle><circle r="6.314159800881068" cx="241.90014157545627" cy="772.5312451252427" opacity="0.9190897797303188"></circle><circle r="2.9510969766151955" cx="123.72277286088708" cy="505.21111264206075" opacity="0.2482147190050636"></circle><circle r="4.473677544332985" cx="739.8543210696822" cy="404.453046641029" opacity="0.20716820971236088"></circle><circle r="5.129690931411332" cx="608.9194120224408" cy="211.36908409738953" opacity="0.22351704821279733"></circle><circle r="8.891351072083838" cx="581.3189655272666" cy="449.8717625166269" opacity="0.3810477490936075"></circle><circle r="6.880770691137496" cx="145.28586418640276" cy="586.8492968001508" opacity="0.761654556266729"></circle><circle r="9.428617752591503" cx="506.5188561489791" cy="290.1782864312011" opacity="0.8289011996569754"></circle><circle r="5.219326365807402" cx="352.56724713284524" cy="33.27374747025569" opacity="0.2097431754405632"></circle><circle r="4.275019275693626" cx="720.6412689659695" cy="249.26030084649196" opacity="0.585506889848148"></circle><circle r="4.6118922148664785" cx="383.1505887264368" cy="786.6078206042989" opacity="0.49354324366594005"></circle><circle r="8.45797816031775" cx="100.50509235399115" cy="212.28413797334434" opacity="0.580582939054915"></circle><circle r="7.2235948583472505" cx="446.5437129866797" cy="595.7039973949072" opacity="0.8928903318350176"></circle><circle r="3.4961711736978813" cx="714.6742389320608" cy="12.63335402731581" opacity="0.4017181653847828"></circle><circle r="8.103757061507514" cx="17.820972704811076" cy="560.8791706263012" opacity="0.5869040864595795"></circle><circle r="4.370787063612975" cx="619.649544304034" cy="412.76115066496095" opacity="0.44334768653512324"></circle><circle r="5.049413220885859" cx="472.01934249914456" cy="432.86843712981937" opacity="0.6922720448148587"></circle><circle r="7.2152730271459555" cx="750.6390321620541" cy="29.086341729385076" opacity="0.5719613311447072"></circle><circle r="2.1877050066871924" cx="107.07969057275918" cy="476.71580762851926" opacity="0.40675481102109556"></circle><circle r="6.932841684764917" cx="528.7200954686732" cy="368.4909006662778" opacity="0.7185518688567253"></circle><circle r="4.0439469509277215" cx="166.78676366004555" cy="557.5168251338639" opacity="0.34965338569569704"></circle><circle r="5.444138894951079" cx="780.3733066467335" cy="77.05040382424804" opacity="0.15662707497606493"></circle><circle r="6.572945962519003" cx="778.4842586611666" cy="158.01995102273645" opacity="0.38211453171913745"></circle><circle r="6.785577701313848" cx="726.8597014493655" cy="508.1863568939911" opacity="0.47820577329832703"></circle><circle r="9.728160141397986" cx="260.651289634184" cy="19.85603470485037" opacity="0.16687362661789407"></circle><circle r="3.7400843875156085" cx="488.28592629805513" cy="185.22525313255778" opacity="0.19696713704144425"></circle><circle r="4.521791910525734" cx="421.07827348186504" cy="434.33533543726185" opacity="0.3447625086312822"></circle><circle r="4.99865206762485" cx="645.5603119143615" cy="524.864668657459" opacity="0.7246655693762394"></circle><circle r="6.924600868309672" cx="13.890118113926336" cy="298.0183380881908" opacity="0.5032815048785454"></circle><circle r="5.2098309523244835" cx="478.02827083982083" cy="214.87657289882443" opacity="0.5478017799914676"></circle><circle r="7.3062967440986295" cx="602.8471203821607" cy="482.0524409306852" opacity="0.5238169120532273"></circle><circle r="5.89469342777088" cx="684.9925967204728" cy="58.5541966420612" opacity="0.7594244764846668"></circle><circle r="5.905382392930131" cx="757.6305791703059" cy="223.06793300060073" opacity="0.7449175748644278"></circle><circle r="5.355481577902834" cx="451.77095820575767" cy="681.188730465395" opacity="0.9214175622974644"></circle><circle r="5.810314765243057" cx="443.4176587887721" cy="568.2759638089727" opacity="0.23623610753849852"></circle><circle r="6.244515742097004" cx="420.8381938782852" cy="146.92853103876473" opacity="0.9264536552788981"></circle><circle r="5.09339050950966" cx="529.3690146967989" cy="782.6909063465154" opacity="0.7847665817591162"></circle><circle r="8.088576571413174" cx="215.53647550764344" cy="325.23248435378815" opacity="0.7849618798249246"></circle><circle r="5.819214435997195" cx="32.54465848354758" cy="330.2160336482063" opacity="0.727683123745851"></circle><circle r="8.047681584465526" cx="676.2640047470483" cy="18.646650636268053" opacity="0.13103183778186012"></circle><circle r="7.316227941950656" cx="723.187092478654" cy="459.1948501854068" opacity="0.8426814633171762"></circle><circle r="3.7932393262052253" cx="120.63114694730908" cy="413.6222619806495" opacity="0.5030857757124255"></circle><circle r="7.8660206214708985" cx="356.9365864492298" cy="299.4391079889491" opacity="0.25512388635376415"></circle><circle r="4.934455555816349" cx="249.3919081753959" cy="86.65785815521986" opacity="0.4920442108929939"></circle><circle r="6.196013158505029" cx="713.0076921573344" cy="657.9031310087521" opacity="0.9795373534074576"></circle><circle r="6.702961432115007" cx="48.15672706756242" cy="382.7903096189688" opacity="0.13731530861622415"></circle><circle r="6.9663712519444445" cx="217.3561255787554" cy="486.46006476448986" opacity="0.18873418683110532"></circle><circle r="6.268364991856153" cx="350.7705773695978" cy="536.1415465216558" opacity="0.7182231138332699"></circle><circle r="7.28328851351943" cx="505.4812795972674" cy="457.4665202954355" opacity="0.7359166194861637"></circle><circle r="3.2888663917184604" cx="11.057246965654832" cy="223.75869695156788" opacity="0.20210260847059439"></circle><circle r="7.425699114842169" cx="160.6950138876523" cy="406.6538158330901" opacity="0.8421021862723959"></circle><circle r="5.948302456546097" cx="673.5261194524588" cy="554.2826081761572" opacity="0.6139141601007306"></circle><circle r="10.162097303653098" cx="546.0302739879012" cy="62.6164533234427" opacity="0.6555281356860108"></circle><circle r="5.642944131829613" cx="124.7846467554942" cy="669.4367256329284" opacity="0.9428748381697077"></circle><circle r="6.100825688789669" cx="264.94059439972295" cy="445.15626968087713" opacity="0.5884845882499095"></circle><circle r="7.022623345600431" cx="665.3585412330074" cy="655.2107933621611" opacity="0.15017054150936518"></circle><circle r="6.306635569955448" cx="422.5786913504633" cy="709.0982886845666" opacity="0.4678348026326501"></circle><circle r="5.444807457547116" cx="525.9722137450841" cy="23.694768157509994" opacity="0.160986964767592"></circle><circle r="5.7804278982890125" cx="357.33290825274474" cy="128.254783756212" opacity="0.7644250444750438"></circle><circle r="7.738837674736852" cx="749.3956441170669" cy="441.1317533969541" opacity="0.61672037133391"></circle><circle r="5.336420049108558" cx="580.5744436701189" cy="337.39951795906586" opacity="0.48456369790138576"></circle><circle r="7.822490749854287" cx="225.88550673416552" cy="452.3467895185163" opacity="0.13927802695902966"></circle><circle r="3.255175016825255" cx="35.2144069241962" cy="186.96563246530215" opacity="0.7414774301226172"></circle><circle r="7.474821248450429" cx="783.1462766458613" cy="23.008431061355346" opacity="0.636975174045188"></circle><circle r="8.761130094529332" cx="137.02658763176154" cy="311.48140083464756" opacity="0.33452195379765826"></circle><circle r="5.555313426531422" cx="259.9063123940786" cy="605.8627411549859" opacity="0.5995801410725908"></circle><circle r="5.758806935796642" cx="254.23866637176354" cy="381.56967319882966" opacity="0.17208049680443033"></circle><circle r="4.769808819637205" cx="184.1582096117987" cy="219.8110547103386" opacity="0.3222573574400163"></circle><circle r="5.129680437364336" cx="45.20029548057375" cy="13.408026052549129" opacity="0.18268001995015357"></circle><circle r="6.776823009976404" cx="483.13339413856494" cy="662.5535598090356" opacity="0.5044290622957679"></circle><circle r="3.3474770159306084" cx="188.77948144012936" cy="164.8753737679518" opacity="0.9892384880059178"></circle><circle r="3.0228859334793157" cx="111.72990584139302" cy="531.6022280233875" opacity="0.4776738658073123"></circle><circle r="4.268271804015131" cx="395.79350759873114" cy="174.6047838817818" opacity="0.5279675358541398"></circle><circle r="6.816851080313512" cx="70.86020687224621" cy="34.30381958970533" opacity="0.9294461378506885"></circle><circle r="2.963057267144678" cx="450.0648617758146" cy="180.697091773574" opacity="0.7331937180328414"></circle><circle r="8.188318015575359" cx="655.150743415499" cy="389.26959901628095" opacity="0.9191475802000215"></circle><circle r="3.418208366133376" cx="17.391321179407228" cy="779.6355650816023" opacity="0.5481264553258406"></circle><circle r="7.09200743424396" cx="634.3348818116763" cy="144.59435659798015" opacity="0.8484354371694361"></circle><circle r="6.542906443037858" cx="509.9266509544975" cy="254.28545984385931" opacity="0.6840901721343143"></circle><circle r="4.99171522229125" cx="61.02457055740399" cy="652.1186741172469" opacity="0.575048909434392"></circle><circle r="6.561132211700942" cx="495.6071463952305" cy="378.2019791748372" opacity="0.46708168016409257"></circle><circle r="4.600792246978045" cx="708.2951809340883" cy="382.07393972452803" opacity="0.2257550126513603"></circle><circle r="5.8397660275162195" cx="451.14235106148305" cy="38.827024655034144" opacity="0.4003130700406855"></circle><circle r="7.606522178355759" cx="780.6316608105457" cy="466.2989919126101" opacity="0.9674991413879483"></circle><circle r="9.140423260662992" cx="367.15705147887337" cy="457.2919758929209" opacity="0.2707351028724793"></circle><circle r="3.0446925154437365" cx="480.62690939776394" cy="254.95903414371531" opacity="0.7468297967512787"></circle><circle r="5.157107586537238" cx="338.0729880000891" cy="57.1297014866484" opacity="0.8489712851748714"></circle><circle r="6.57579271821796" cx="196.25882218271298" cy="13.277979737077644" opacity="0.628589884802116"></circle><circle r="5.369004297895327" cx="68.41039155168465" cy="707.6531475476721" opacity="0.9439031687629705"></circle><circle r="6.229965823926419" cx="448.1442940928417" cy="218.7824407707257" opacity="0.9853585471135103"></circle><circle r="3.5236246946377943" cx="639.3369634560447" cy="727.0295269342816" opacity="0.49311968442553356"></circle><circle r="5.621461624761578" cx="502.987723757125" cy="509.344479761807" opacity="0.27613839503370063"></circle><circle r="6.862204571263181" cx="431.17091806973184" cy="392.30853831322804" opacity="0.7295509147859458"></circle><circle r="5.173971346678755" cx="784.3173842840972" cy="210.74190083463586" opacity="0.7007437259284971"></circle><circle r="5.684185963612661" cx="551.9974799685818" cy="18.800342258484864" opacity="0.18544435956471586"></circle><circle r="5.462738860164451" cx="155.02018464983436" cy="643.2258236876816" opacity="0.8993486666920069"></circle><circle r="4.169788379864118" cx="71.61784669105236" cy="579.7398941216363" opacity="0.11850011867287455"></circle><circle r="11.611236565780441" cx="277.9268343958514" cy="492.6272355419788" opacity="0.774620590418204"></circle><circle r="3.936369586253482" cx="489.9755523961378" cy="788.6312583116963" opacity="0.1717781337868426"></circle><circle r="7.324901084630538" cx="356.48726270507063" cy="644.6571770993061" opacity="0.7514846155135868"></circle><circle r="8.399216767386285" cx="95.51413491043495" cy="249.05333885708603" opacity="0.8820577794490233"></circle><circle r="7.232528330278534" cx="288.60977571686107" cy="725.4090447888899" opacity="0.13235702709680264"></circle><circle r="6.730461824670577" cx="725.9893262100444" cy="551.8708469355282" opacity="0.452775651706402"></circle><circle r="5.939311564373526" cx="778.2278592277377" cy="552.787960298184" opacity="0.6261659277922214"></circle><circle r="5.438626481830193" cx="393.561133133342" cy="330.9434064165105" opacity="0.5570416931377423"></circle><circle r="7.072218407341749" cx="700.1313647578835" cy="303.266848136399" opacity="0.8080994245907365"></circle><circle r="4.068344486840048" cx="325.0172672273707" cy="16.204368930637216" opacity="0.5035599330135653"></circle><circle r="7.160224327366485" cx="459.8960233928908" cy="402.83135340625336" opacity="0.614950935482862"></circle><circle r="5.1099932195269275" cx="170.18214814988508" cy="673.4003597520857" opacity="0.8869815041892769"></circle><circle r="4.7973175981253" cx="756.2133406291553" cy="592.619263441264" opacity="0.770875529729071"></circle><circle r="4.3076605965176205" cx="391.51264913530576" cy="531.5090488612784" opacity="0.1787714273288089"></circle><circle r="3.4843711217799154" cx="690.4354454424328" cy="678.2869884328637" opacity="0.7587834962299271"></circle><circle r="5.076046057819541" cx="231.04444163784953" cy="628.4338470019115" opacity="0.5494990950417796"></circle><circle r="7.122911165271774" cx="19.69522957872006" cy="717.1555494843456" opacity="0.7038551870210196"></circle><circle r="5.117997294642345" cx="444.79520684377445" cy="11.785606807807243" opacity="0.2185495893141313"></circle><circle r="6.895385590181659" cx="356.1371626336997" cy="241.56898618689846" opacity="0.803897066986854"></circle><circle r="6.11203951156306" cx="604.4612534878228" cy="779.2911788894663" opacity="0.41272695019460837"></circle><circle r="7.658526621332455" cx="365.13714471351125" cy="166.03460146019103" opacity="0.432324092863572"></circle><circle r="5.833161754250853" cx="784.5461352444311" cy="506.5976934651841" opacity="0.37644440423758796"></circle><circle r="4.269711027783673" cx="579.1005629816866" cy="361.7939396491725" opacity="0.6597479544959926"></circle><circle r="11.284578939106556" cx="256.10716346204623" cy="673.5678778016493" opacity="0.8803312250045771"></circle><circle r="7.002057855575" cx="531.5804353990433" cy="228.1669140268375" opacity="0.9251869019101483"></circle><circle r="4.494804998230715" cx="369.8369051507384" cy="52.49879923967208" opacity="0.8306512007299672"></circle><circle r="8.302175193111735" cx="411.84804761837376" cy="85.74159578124906" opacity="0.9409494097350904"></circle><circle r="3.864924151231278" cx="599.6266711150847" cy="596.8102812671204" opacity="0.7326015876219296"></circle><circle r="4.003581757940871" cx="411.2629695834091" cy="8.37382633791802" opacity="0.6908068445891804"></circle><circle r="5.924222695114145" cx="389.1795734888266" cy="142.17429661921446" opacity="0.7303874713931057"></circle><circle r="7.909941653321929" cx="466.86087595792173" cy="134.21002591363697" opacity="0.9202311312550376"></circle><circle r="5.13738198544333" cx="758.9836385002417" cy="121.56170309852114" opacity="0.903061493692601"></circle><circle r="4.397823286379837" cx="280.81602415234863" cy="363.2778501849196" opacity="0.3111907614577687"></circle><circle r="6.144164925427596" cx="651.8955418390532" cy="586.4012917967351" opacity="0.8075274566430695"></circle><circle r="7.165339854100262" cx="55.870242117450545" cy="429.95421413791206" opacity="0.649349813463932"></circle><circle r="5.244118276698811" cx="228.58702755663805" cy="408.96947770133835" opacity="0.6281430011406706"></circle><circle r="4.898218601331607" cx="350.10883878233085" cy="575.0616235975391" opacity="0.42280707758477165"></circle><circle r="3.918311281239267" cx="467.96608525007116" cy="364.08241613326607" opacity="0.19441224618120492"></circle><circle r="7.161435314366793" cx="386.5805495990051" cy="265.397689145465" opacity="0.20721126129421918"></circle><circle r="2.885218291925362" cx="508.01024391491393" cy="15.90166311191235" opacity="0.28181976396276476"></circle><circle r="3.037353257961864" cx="98.53236899534659" cy="404.671366739263" opacity="0.11855150799007423"></circle><circle r="9.610450068959906" cx="559.1297634465179" cy="183.93672253294588" opacity="0.9846883321421233"></circle><circle r="9.896621470067611" cx="377.9311653891395" cy="370.2566646001811" opacity="0.7476710719324609"></circle><circle r="4.733228263829642" cx="379.41292120134756" cy="75.99867778049119" opacity="0.8804654325942702"></circle><circle r="5.509861731516476" cx="43.40001121764855" cy="584.4037742324191" opacity="0.7387111497438252"></circle><circle r="6.521662757512508" cx="689.1695806099641" cy="232.18906689964592" opacity="0.4992787406997552"></circle><circle r="5.346497402869751" cx="18.924404938912012" cy="610.1150411339205" opacity="0.4711507592241586"></circle><circle r="5.800539138976396" cx="61.54757836328345" cy="615.796284921443" opacity="0.6080685780776585"></circle><circle r="7.380749011388344" cx="599.5790765793226" cy="56.88933555151948" opacity="0.5910049924486686"></circle><circle r="5.462308078214284" cx="547.6877996720633" cy="336.751667316891" opacity="0.9774593525612086"></circle><circle r="5.9479327863331735" cx="589.9049386945973" cy="726.2341824731102" opacity="0.5748500826678914"></circle><circle r="5.945914932517609" cx="400.98038843410086" cy="762.8339466486516" opacity="0.8651091376970387"></circle><circle r="4.159470819427995" cx="431.02259757261373" cy="336.14169606896985" opacity="0.18302823115539957"></circle><circle r="5.252561532594822" cx="685.2789353565421" cy="361.80189223701336" opacity="0.779252204111353"></circle><circle r="5.989279002517722" cx="305.5770489994121" cy="252.34395743068836" opacity="0.7828406201733513"></circle><circle r="9.140869217359743" cx="571.9648518449073" cy="505.51199977372664" opacity="0.2606295202077778"></circle><circle r="9.048661791834574" cx="306.95486027219175" cy="434.61102918756256" opacity="0.817068837235887"></circle><circle r="7.311374106286875" cx="585.4419228710716" cy="555.5745232893491" opacity="0.775001189979749"></circle><circle r="5.7813573906110935" cx="60.54693296397567" cy="223.30219366468023" opacity="0.4423744990491614"></circle><circle r="5.01463861837444" cx="295.74364953482245" cy="101.9254043180154" opacity="0.3343033027376153"></circle><circle r="2.9854294338265257" cx="441.21579920369396" cy="537.600003944097" opacity="0.39392519345712473"></circle><circle r="6.450202079347742" cx="613.8747750702365" cy="631.1201205648208" opacity="0.4249934270857323"></circle><circle r="5.893975913459238" cx="90.39030860123022" cy="530.7194811135221" opacity="0.6504223305859881"></circle><circle r="2.698631854119002" cx="578.2132583362412" cy="217.7543595490744" opacity="0.21620328344513073"></circle><circle r="9.846135718316878" cx="539.0087349346771" cy="543.1750382471383" opacity="0.17916408850344445"></circle><circle r="4.519202784274362" cx="16.653527226912352" cy="259.45064293673755" opacity="0.12405494351880958"></circle><circle r="5.517081271398808" cx="193.64735146821067" cy="404.2222534786331" opacity="0.22278908805430797"></circle><circle r="7.907669110683672" cx="16.472788409032898" cy="103.86133770144018" opacity="0.38839531569469876"></circle><circle r="3.2788239954726444" cx="166.98577819725978" cy="173.8493448101593" opacity="0.637099805785227"></circle><circle r="7.9276715712540184" cx="502.85297070427373" cy="414.3841876937064" opacity="0.24654224263693048"></circle><circle r="5.405884598699785" cx="88.07543557987393" cy="427.8760231859605" opacity="0.10555754027356153"></circle><circle r="6.458901435295735" cx="222.03371658851185" cy="69.6533785005597" opacity="0.7979733969963249"></circle><circle r="4.985659713783943" cx="310.4286853424805" cy="324.25191673225595" opacity="0.16333148674595066"></circle><circle r="6.408161257915361" cx="582.5997805754097" cy="675.0352035542259" opacity="0.8162493616775658"></circle><circle r="7.788846605430591" cx="477.53821259330573" cy="611.1786365106242" opacity="0.3295060157699454"></circle><circle r="2.285870031289276" cx="12.248168422718296" cy="792.7473028170994" opacity="0.6470324861059727"></circle><circle r="9.967755466384133" cx="268.1410199698044" cy="256.05863813175966" opacity="0.11985931806396735"></circle><circle r="5.211668438735876" cx="359.06414093284616" cy="748.377056642461" opacity="0.8747517425836135"></circle><circle r="4.035078101577409" cx="597.5223838749179" cy="293.1777082212093" opacity="0.6209092877553216"></circle><circle r="6.744482029660254" cx="762.3985473592211" cy="697.1800388362287" opacity="0.49821340631862054"></circle><circle r="3.6332930026292694" cx="152.99394885335067" cy="194.01881774892942" opacity="0.9580748242402568"></circle><circle r="5.900737124373584" cx="297.6868176867601" cy="73.09626961466384" opacity="0.10059337517965909"></circle><circle r="7.782116193899558" cx="529.102317996126" cy="725.9852029651781" opacity="0.7199615213961139"></circle><circle r="5.480764550811552" cx="79.56796386846497" cy="297.23193462255756" opacity="0.9817700685819709"></circle><circle r="2.612854207854864" cx="467.43057609171774" cy="185.94609429763756" opacity="0.4630743058988378"></circle><circle r="7.510935988097316" cx="74.93722507734361" cy="74.15011412112857" opacity="0.2393410620424065"></circle><circle r="9.645531589235674" cx="665.5547436337573" cy="173.34132322529982" opacity="0.41317442547612204"></circle><circle r="5.531386870341882" cx="77.54598986594814" cy="391.57459814476965" opacity="0.9543794789734649"></circle><circle r="8.388554551935758" cx="221.14204115952853" cy="581.4206088791525" opacity="0.7717600129683385"></circle><circle r="8.800299300959553" cx="599.4246806782184" cy="106.00086514601173" opacity="0.34111517752743603"></circle><circle r="4.198104756006217" cx="626.7069107302605" cy="280.28800900890235" opacity="0.7856785326789991"></circle><circle r="4.550784201523351" cx="333.1311755259333" cy="109.40409107362805" opacity="0.9970302878974481"></circle><circle r="7.092084711502572" cx="777.2235662892075" cy="779.5127156416879" opacity="0.9322471880831831"></circle><circle r="5.161359929400636" cx="699.566260502692" cy="486.5481605470975" opacity="0.7547356353035203"></circle><circle r="6.667426323282468" cx="425.5687201295274" cy="298.8013284525693" opacity="0.293519031036667"></circle><circle r="4.336286889474482" cx="644.629640776095" cy="698.5084648314416" opacity="0.9818669941727183"></circle><circle r="6.563975671351275" cx="279.6545249727371" cy="773.1902127630485" opacity="0.37634307607768325"></circle><circle r="4.506233735204998" cx="396.1641045345632" cy="293.8198152486961" opacity="0.7752499704713054"></circle><circle r="7.013569262501738" cx="216.84145448590664" cy="283.8917348289693" opacity="0.8099429156974947"></circle><circle r="7.024450281493619" cx="453.50675463120064" cy="273.5876464191063" opacity="0.32158486318695134"></circle><circle r="7.75567267311627" cx="85.35621349086821" cy="678.3808061500343" opacity="0.4909541808530552"></circle><circle r="6.882264313400825" cx="682.8505779710911" cy="276.05477873704075" opacity="0.5960780368741524"></circle><circle r="4.704948959920188" cx="130.51095725782736" cy="126.38142073067202" opacity="0.4146576063712796"></circle><circle r="7.813573524474463" cx="716.411010547489" cy="44.432689559651415" opacity="0.9389807083235181"></circle><circle r="5.632025427432194" cx="193.95324741254507" cy="712.9724187724607" opacity="0.28731973856987425"></circle><circle r="6.871496933209377" cx="330.0694717809574" cy="664.949061487153" opacity="0.4656221324114309"></circle><circle r="9.010858436437942" cx="543.2542271197925" cy="439.12215681994843" opacity="0.3429583491378187"></circle><circle r="9.919166313243482" cx="44.68448941674982" cy="471.5407288598345" opacity="0.9069179978059918"></circle><circle r="9.491233980012266" cx="186.1437200924819" cy="356.13559421579845" opacity="0.843995331012484"></circle><circle r="6.940348146849289" cx="140.83718061769363" cy="382.9347539306913" opacity="0.4516874304807176"></circle><circle r="5.924127951067412" cx="93.3531602360308" cy="561.2051087591942" opacity="0.9662820470786329"></circle><circle r="4.420865656449509" cx="756.1866336126908" cy="522.3218773777007" opacity="0.599141756616828"></circle><circle r="6.510872024445542" cx="548.9085062542838" cy="645.2451056414167" opacity="0.5414142244688477"></circle><circle r="9.471679615891716" cx="556.5679546361928" cy="583.8800151844932" opacity="0.37346920360653735"></circle><circle r="4.6866472667701755" cx="77.09523896549526" cy="185.6316440584372" opacity="0.12777527123651589"></circle><circle r="3.261470095879389" cx="177.6527420928034" cy="118.90273773908652" opacity="0.8150374535814009"></circle><circle r="7.395563107363831" cx="632.9015228955674" cy="492.6066030895027" opacity="0.8392155474023203"></circle><circle r="5.710521893616707" cx="15.843008696552417" cy="24.446999895131125" opacity="0.704565184804376"></circle><circle r="5.482697647368491" cx="776.9945946044945" cy="332.9192112079554" opacity="0.589495530698218"></circle><circle r="6.451868147210181" cx="679.7231958487031" cy="410.2270901973489" opacity="0.40769857897300066"></circle><circle r="6.264958166674512" cx="594.8358172062494" cy="265.89166381740125" opacity="0.7905606405341027"></circle><circle r="6.027944655822715" cx="623.9371492404815" cy="657.9094956481526" opacity="0.45640381990008627"></circle><circle r="4.17973823375843" cx="483.1155802966918" cy="530.2994064466847" opacity="0.3357820919530419"></circle><circle r="8.40738269838559" cx="507.52160389372216" cy="637.8465025896357" opacity="0.49479566656432705"></circle><circle r="4.594840442991313" cx="205.72154895729557" cy="189.03454850578882" opacity="0.8185565288537298"></circle><circle r="7.06587240409943" cx="15.940976204224967" cy="450.59694217917865" opacity="0.9010669820134048"></circle><circle r="6.409773913211408" cx="445.42400901849425" cy="760.2452310218457" opacity="0.11383621947008254"></circle><circle r="4.720354078349149" cx="645.3499667108339" cy="355.30246080249833" opacity="0.6753411372271941"></circle><circle r="6.4508160373733565" cx="532.9810861116828" cy="399.3966792030613" opacity="0.103071644145049"></circle><circle r="4.0853896795365" cx="573.8577329002603" cy="383.01655249813933" opacity="0.4139400041621838"></circle><circle r="5.851089357563095" cx="164.6128469216301" cy="39.05456250809355" opacity="0.4647814545931148"></circle><circle r="5.566185787115174" cx="267.7061740481974" cy="62.52665327861222" opacity="0.45134411231771954"></circle><circle r="6.117526557467425" cx="734.880658704173" cy="780.1707742036778" opacity="0.4311025484822647"></circle><circle r="6.324229181847809" cx="745.0872337025385" cy="482.2142039414445" opacity="0.31729680916914155"></circle><circle r="7.1119906843242315" cx="53.56469120569918" cy="168.28378891109801" opacity="0.7505831437712874"></circle><circle r="8.246242707471819" cx="273.91328161083527" cy="312.5251439786936" opacity="0.573414658200079"></circle><circle r="3.6202731264693826" cx="13.417883373127372" cy="403.2253671580976" opacity="0.1375267397555963"></circle><circle r="4.878791750390345" cx="724.7516019016143" cy="288.66686608114304" opacity="0.857490703329625"></circle><circle r="3.4158340157186116" cx="478.61994216275826" cy="50.519074860347466" opacity="0.16649658889734487"></circle><circle r="4.672000661641371" cx="99.3493927866834" cy="769.7649002569154" opacity="0.22832750798184037"></circle><circle r="3.5388461296459477" cx="619.3474090111151" cy="319.6755764453734" opacity="0.34950116608080456"></circle><circle r="5.094822850569654" cx="509.3905808489585" cy="329.34334038560223" opacity="0.7847198361775324"></circle><circle r="7.609731292048691" cx="299.5877517412725" cy="622.9770512118555" opacity="0.45578167594441354"></circle><circle r="5.642891991290511" cx="142.2668734420349" cy="436.5125969379757" opacity="0.3218454765455153"></circle><circle r="3.932874299605447" cx="275.2463148865494" cy="174.88645413966586" opacity="0.2952518679863273"></circle><circle r="6.086285631162766" cx="615.2069075874319" cy="695.6916231179691" opacity="0.1412203557664937"></circle><circle r="7.694563658206256" cx="663.1894451259292" cy="622.5526661008596" opacity="0.2980742527851208"></circle><circle r="4.796579621571404" cx="557.6377269555215" cy="225.12314145303634" opacity="0.4199094522302941"></circle><circle r="5.418769217499317" cx="783.8097092559527" cy="374.0227990417753" opacity="0.5099669448745693"></circle><circle r="4.095079139258318" cx="356.30233470302784" cy="778.7416301630658" opacity="0.46997092167848975"></circle><circle r="7.648604649476722" cx="106.336864871311" cy="593.7016202627635" opacity="0.5494414228740916"></circle><circle r="5.942123609692809" cx="466.05875635918585" cy="333.4025410453889" opacity="0.7790372175235077"></circle><circle r="5.469214874498082" cx="700.2503397459219" cy="527.2636995769485" opacity="0.40159967043153255"></circle><circle r="5.049908297138402" cx="106.30327195181744" cy="370.7429872178338" opacity="0.5163706515915748"></circle><circle r="6.560906962502325" cx="615.1458769369307" cy="185.351486563616" opacity="0.8218220818871969"></circle><circle r="4.294264215538215" cx="675.9324955129833" cy="329.96820034610283" opacity="0.6792085254517936"></circle><circle r="6.588688446521994" cx="519.629099306663" cy="679.3632276792019" opacity="0.8335367008833001"></circle><circle r="8.84155407707193" cx="71.90655677474105" cy="502.26677144903" opacity="0.7116366345849192"></circle><circle r="7.287992887345002" cx="315.3159654690496" cy="219.25769799792909" opacity="0.5980449839260464"></circle><circle r="4.137462149024219" cx="689.4678355021701" cy="753.0780986681988" opacity="0.41717932264120317"></circle><circle r="5.681916460149761" cx="47.69908398262654" cy="758.861922196033" opacity="0.5671819632171404"></circle><circle r="8.551535916509795" cx="552.7133140338377" cy="699.5568073426858" opacity="0.14986022070010802"></circle><circle r="9.528823933778884" cx="174.25256242947492" cy="765.6846475687656" opacity="0.5337738355182059"></circle><circle r="6.532610021665279" cx="619.8889304753355" cy="442.46389065248667" opacity="0.2736936218563166"></circle><circle r="7.654752817760825" cx="300.5522333448612" cy="36.40646668834862" opacity="0.3600326968317481"></circle><circle r="5.726003535820984" cx="164.71956596511234" cy="609.9110611663282" opacity="0.650496549034169"></circle><circle r="5.461942934690632" cx="443.3271356791605" cy="455.908486256059" opacity="0.5268774584266017"></circle><circle r="3.1831519402249437" cx="16.624874008877853" cy="764.2675182905552" opacity="0.3935884599661873"></circle><circle r="8.42249259029115" cx="115.81203752690763" cy="173.5390091780592" opacity="0.40680701828948984"></circle><circle r="3.2954383418919635" cx="131.94600894510734" cy="527.4824236249651" opacity="0.11242465723418876"></circle><circle r="9.526667374494764" cx="318.9080846585527" cy="775.0709160661205" opacity="0.9292263152760913"></circle><circle r="3.8380321847247982" cx="756.8518515018621" cy="311.05317910268917" opacity="0.3606152025835784"></circle><circle r="6.774217275871286" cx="189.38250246528054" cy="575.3610597502991" opacity="0.5766099630703044"></circle><circle r="5.365859524330647" cx="19.09972827177286" cy="650.1858005967074" opacity="0.15594542048945453"></circle><circle r="4.311583190854828" cx="43.7607466253529" cy="289.83812793928416" opacity="0.554360750585996"></circle></g></svg>